<?xml version="1.0" standalone="no"?>
<!DOCTYPE svg PUBLIC "-//W3C//DTD SVG 1.1//EN" "http://www.w3.org/Graphics/SVG/1.1/DTD/svg11.dtd" >
<!--
2013-9-30: Created.
-->
<svg>
<metadata>
Created by iconfont
</metadata>
<defs>

<font id="iconfont" horiz-adv-x="1024" >
  <font-face
    font-family="iconfont"
    font-weight="500"
    font-stretch="normal"
    units-per-em="1024"
    ascent="896"
    descent="-128"
  />
    <missing-glyph />
    
    <glyph glyph-name="x" unicode="x" horiz-adv-x="1001"
d="M281 543q-27 -1 -53 -1h-83q-18 0 -36.5 -6t-32.5 -18.5t-23 -32t-9 -45.5v-76h912v41q0 16 -0.5 30t-0.5 18q0 13 -5 29t-17 29.5t-31.5 22.5t-49.5 9h-133v-97h-438v97zM955 310v-52q0 -23 0.5 -52t0.5 -58t-10.5 -47.5t-26 -30t-33 -16t-31.5 -4.5q-14 -1 -29.5 -0.5
t-29.5 0.5h-32l-45 128h-439l-44 -128h-29h-34q-20 0 -45 1q-25 0 -41 9.5t-25.5 23t-13.5 29.5t-4 30v167h911zM163 247q-12 0 -21 -8.5t-9 -21.5t9 -21.5t21 -8.5q13 0 22 8.5t9 21.5t-9 21.5t-22 8.5zM316 123q-8 -26 -14 -48q-5 -19 -10.5 -37t-7.5 -25t-3 -15t1 -14.5
t9.5 -10.5t21.5 -4h37h67h81h80h64h36q23 0 34 12t2 38q-5 13 -9.5 30.5t-9.5 34.5q-5 19 -11 39h-368zM336 498v228q0 11 2.5 23t10 21.5t20.5 15.5t34 6h188q31 0 51.5 -14.5t20.5 -52.5v-227h-327z" />
    

    
    <glyph glyph-name="houtui" unicode="&#58890;" d="M66.878177 293.59615 510.856967-35.955518 510.856967 293.59615 510.856967 623.148841ZM510.856967 293.59615 954.835757-35.955518 954.835757 623.148841Z"  horiz-adv-x="1024" />

    
    <glyph glyph-name="shouyi" unicode="&#59045;" d="M592.832 348.256c8.832 0 16 7.168 16 16s-7.168 16-16 16l-145.504 0 0 9.024 132.32 192.224c4.992 7.296 3.168 17.216-4.128 22.24-7.2 4.96-17.184 3.264-22.24-4.128l-121.952-177.152L309.408 599.616C304.384 606.944 294.464 608.736 287.136 603.744 279.872 598.72 278.016 588.768 283.04 581.504l132.288-192.224 0-9.024L269.888 380.256c-8.832 0-16-7.168-16-16s7.168-16 16-16l145.472 0 0-61.408L269.888 286.84799999999996c-8.832 0-16-7.168-16-16s7.168-16 16-16l145.472 0 0-69.6c0-8.832 7.168-16 16-16s16 7.168 16 16l0 69.6 145.504 0c8.832 0 16 7.168 16 16s-7.168 16-16 16l-145.504 0 0 61.408L592.832 348.256zM595.296 766.496c-2.688 0-5.408-0.64-8.064-0.64 45.76-21.44 88.192-52.064 123.232-89.056 72.032-76.192 117.888-181.536 117.888-296.16 0-113.92-45.12-217.824-117.184-292.608-35.008-36.32-76.8-66.24-122.592-87.552 2.016 0 4.704 0 6.752 0 198.656 0 364.384 170.144 364.384 380.16C959.648 591.36 793.952 766.496 595.296 766.496zM799.296 380.76800000000003c0 208.544-170.464 384.704-372.256 384.704-202.368 0-367.008-172.608-367.008-384.704 0-209.12 164.64-379.296 367.008-379.296C632.288 1.504000000000019 799.296 171.64800000000002 799.296 380.76800000000003zM427.04 32.86400000000003c-185.056 0-335.616 156.064-335.616 347.904 0 194.848 150.56 353.344 335.616 353.344 184.768 0 340.864-161.824 340.864-353.344C767.904 188.928 615.008 32.86400000000003 427.04 32.86400000000003z"  horiz-adv-x="1024" />

    
    <glyph glyph-name="clock" unicode="&#59762;" d="M512-128C230.4-128 0 102.4 0 384S230.4 896 512 896s512-230.4 512-512S793.6-128 512-128zM512 810.666667C277.333333 810.666667 85.333333 618.666667 85.333333 384s192-426.666667 426.666667-426.666667 426.666667 192 426.666667 426.666667S746.666667 810.666667 512 810.666667zM512 341.333333c-25.6 0-42.666667 17.066667-42.666667 42.666667L469.333333 682.666667c0 25.6 17.066667 42.666667 42.666667 42.666667s42.666667-17.066667 42.666667-42.666667l0-298.666667C554.666667 358.4 537.6 341.333333 512 341.333333zM682.666667 170.666667c-12.8 0-21.333333 4.266667-29.866667 12.8l-170.666667 170.666667c-17.066667 17.066667-17.066667 42.666667 0 59.733333s42.666667 17.066667 59.733333 0l170.666667-170.666667c17.066667-17.066667 17.066667-42.666667 0-59.733333C704 174.933333 695.466667 170.666667 682.666667 170.666667z"  horiz-adv-x="1024" />

    
    <glyph glyph-name="dashboard" unicode="&#59181;" d="M512.2048 895.590404C229.546667 895.590404 0.4096 666.419203 0.4096 383.795203 0.4096 101.13707 229.546667-127.999997 512.2048-127.999997 794.862933-127.999997 1024 101.13707 1024 383.795203 1024 666.419203 794.862933 895.590404 512.2048 895.590404ZM512-59.73333C266.888533-59.73333 68.266667 138.888537 68.266667 384.000003 68.266667 629.077337 266.888533 827.733337 512 827.733337 757.111467 827.733337 955.733333 629.077337 955.733333 384.000003 955.733333 138.888537 757.111467-59.73333 512-59.73333ZM702.899678 592.585711 460.302432 422.914004C439.530213 411.567152 425.282816 389.212761 425.282816 363.462065 425.282816 326.499171 454.637664 296.535685 490.849751 296.535685 512.068359 296.535685 530.932623 306.823683 542.916437 322.77972L742.96461 539.64631C749.150689 545.971418 753.117505 554.633974 753.117505 564.242282 753.117505 582.723193 738.43955 597.705473 720.334032 597.705473 713.9274 597.705473 707.949213 595.829053 702.899678 592.585711Z"  horiz-adv-x="1024" />

    
    <glyph glyph-name="shiliangzhinengduixiang11" unicode="&#59613;" d="M512 896C229.68215 896 0 666.31785 0 384c0-282.31785 229.68215-512 512-512 282.31785 0 512 229.683389 512 512C1024.001239 666.31785 794.31785 896 512 896zM944.926923 384c0-238.716738-194.210185-432.926923-432.926923-432.926923s-432.926923 194.210185-432.926923 432.926923 194.210185 432.926923 432.926923 432.926923S944.926923 622.715499 944.926923 384zM619.809357 434.735637c0 6.338084-6.338084 12.681122-12.681122 12.681122s-12.681122 0-12.681122-6.343038L505.656962 307.895926 416.873004 504.495434c0 6.338084-6.339322 12.681122-12.682361 12.681122-6.343038 0-12.686077-6.343038-19.024161-6.343038L302.71937 403.024161l-114.152395 0C182.228891 403.024161 175.885852 396.681122 175.885852 384c0-6.343038 6.343038-19.025399 12.681122-19.025399l126.839711 0c12.681122 0 19.024161 6.338084 19.024161 6.338084l63.416759 82.447113 88.785196-202.937592c0-6.343038 6.343038-12.686077 12.686077-12.686077 6.338084 0 19.024161 0 19.024161 6.343038L600.785196 384l12.686077-57.078675c6.338084-6.339322 12.682361-6.339322 19.025399-6.339322L835.433026 320.582003c6.344277 0 12.682361 6.339322 12.682361 19.025399 0 6.343038-6.338084 12.681122-19.025399 12.681122l-183.912193 0L619.809357 434.735637zM492.975839 415.705283 569.078675 510.833518 531.025399 510.833518 537.368438 586.936353 467.60864 491.809357 505.656962 491.809357Z"  horiz-adv-x="1024" />

    
    <glyph glyph-name="money" unicode="&#58904;" d="M396.8 491.52c5.12-5.12 12.8-7.68 17.92-7.68s12.8 2.56 17.92 7.68c10.24 10.24 10.24 25.6 0 35.84l-107.52 107.52c-10.24 10.24-25.6 10.24-35.84 0-10.24-10.24-10.24-25.6 0-35.84L396.8 491.52zM627.2 491.52l107.52 107.52c10.24 10.24 10.24 25.6 0 35.84-10.24 10.24-25.6 10.24-35.84 0L588.8 527.36c-10.24-10.24-10.24-25.6 0-35.84 5.12-5.12 12.8-7.68 17.92-7.68S622.08 486.4 627.2 491.52zM724.48 417.28c15.36 0 25.6 12.8 25.6 25.6s-12.8 25.6-25.6 25.6L309.76 468.48c-15.36 0-25.6-12.8-25.6-25.6s12.8-25.6 25.6-25.6l176.64 0 0-99.84-184.32 0c-15.36 0-25.6-12.8-25.6-25.6 0-15.36 12.8-25.6 25.6-25.6l184.32 0 0-156.16c0-15.36 12.8-25.6 25.6-25.6s25.6 12.8 25.6 25.6l0 156.16 179.2 0c15.36 0 25.6 12.8 25.6 25.6 0 15.36-12.8 25.6-25.6 25.6l-179.2 0 0 99.84L724.48 417.28zM69.12 404.48c15.36 0 25.6 12.8 25.6 25.6l0 0C117.76 640 296.96 803.84 512 803.84c207.36 0 378.88-151.04 412.16-345.6 0 0 2.56-15.36 12.8-23.04 5.12-2.56 7.68-2.56 12.8-2.56 10.24 0 17.92 5.12 23.04 12.8 2.56 5.12 61.44 110.08 46.08 215.04-2.56 15.36-15.36 23.04-28.16 23.04-15.36-2.56-23.04-15.36-23.04-28.16 5.12-38.4-2.56-79.36-12.8-112.64C893.44 724.48 719.36 857.6 512 857.6c-245.76 0-445.44-186.88-468.48-424.96C43.52 417.28 53.76 404.48 69.12 404.48zM954.88 363.52c-15.36 0-25.6-12.8-25.6-25.6l0 0C906.24 128 727.04-35.84 512-35.84c-207.36 0-378.88 151.04-412.16 345.6 0 0-2.56 15.36-12.8 23.04-5.12 2.56-7.68 2.56-12.8 2.56-10.24 0-17.92-5.12-23.04-12.8-2.56-5.12-61.44-110.08-46.08-215.04 2.56-15.36 15.36-23.04 28.16-23.04 15.36 2.56 23.04 15.36 23.04 28.16-5.12 38.4 2.56 79.36 12.8 112.64 64-184.32 238.08-317.44 445.44-317.44 245.76 0 445.44 186.88 468.48 424.96C980.48 350.72 970.24 363.52 954.88 363.52z"  horiz-adv-x="1024" />

    
    <glyph glyph-name="gaojing" unicode="&#59124;" d="M512 131.776c-25.408 0-46.016 20.544-46.016 45.952 0 25.408 20.608 46.016 46.016 46.016s46.016-20.544 46.016-46.016C558.016 152.32 537.408 131.776 512 131.776L512 131.776 512 131.776zM512 131.776M512 284.352c-21.248 0-38.528 17.28-38.528 38.528L473.472 611.008c0 21.248 17.28 38.528 38.528 38.528s38.528-17.28 38.528-38.528l0-288.128C550.528 301.632 533.248 284.352 512 284.352L512 284.352zM512 284.352M512 832C264.576 832 64 631.424 64 384s200.576-448 448-448 448 200.576 448 448S759.424 832 512 832L512 832zM512-4.224c-214.08 0-388.288 174.144-388.288 388.224S297.92 772.224 512 772.224 900.288 598.144 900.288 384 726.08-4.224 512-4.224L512-4.224zM512-4.224"  horiz-adv-x="1024" />

    
    <glyph glyph-name="hougun" unicode="&#58881;" d="M957.122 390.404l-443.979 329.552v-659.104zM513.143 390.404l-443.979 329.552v-659.104z"  horiz-adv-x="1024" />

    
    <glyph glyph-name="error" unicode="&#59382;" d="M220.8 83.20000000000005l22.4-22.4 272 272 272-272 48 44.8-275.2 272 275.2 272-48 48-272-275.2-272 275.2-22.4-25.6-22.4-22.4 272-272-272-272z"  horiz-adv-x="1024" />

    
    <glyph glyph-name="up" unicode="&#59384;" d="M515.2 534.4l313.6-316.8 44.8 44.8L537.6 601.6h-48L153.6 262.4l44.8-44.8z"  horiz-adv-x="1024" />

    
    <glyph glyph-name="right" unicode="&#59385;" d="M400 19.200000000000045l339.2 339.2v44.8L400 739.2l-44.8-44.8 313.6-313.6-313.6-316.8z"  horiz-adv-x="1024" />

    
    <glyph glyph-name="left" unicode="&#59386;" d="M672 64l-313.6 313.6L672 694.4l-44.8 44.8L291.2 400v-44.8l336-339.2z"  horiz-adv-x="1024" />

    
    <glyph glyph-name="down" unicode="&#59387;" d="M537.6 153.60000000000002l339.2 339.2-44.8 44.8-316.8-316.8-316.8 316.8-44.8-44.8 339.2-339.2z"  horiz-adv-x="1024" />

    
    <glyph glyph-name="edit" unicode="&#59389;" d="M864 566.4l-172.8 172.8L160 201.60000000000002v-172.8h172.8L864 566.4z m-172.8 80l80-80-51.2-51.2L640 595.2l51.2 51.2zM224 92.79999999999995v80l393.6 396.8 80-80L304 92.79999999999995H224z"  horiz-adv-x="1024" />

    
    <glyph glyph-name="file" unicode="&#59391;" d="M873.6 422.4v48l-288 288H150.4v-752h726.4v416zM214.4 73.60000000000002V694.4h326.4v-272h272v-352H214.4zM572.8 684.8l230.4-230.4h-230.4V684.8z"  horiz-adv-x="1024" />

    
    <glyph glyph-name="html" unicode="&#59397;" d="M899.2 700.8H124.8V64h777.6V700.8z m-710.4-576V454.4h649.6V128H188.8z m646.4 512v-150.4H188.8V636.8h646.4zM144 470.4z m732.8 0zM262.4 569.6m-25.6 0a25.6 25.6 0 1 1 51.2 0 25.6 25.6 0 1 1-51.2 0ZM374.4 569.6m-25.6 0a25.6 25.6 0 1 1 51.2 0 25.6 25.6 0 1 1-51.2 0ZM486.4 569.6m-25.6 0a25.6 25.6 0 1 1 51.2 0 25.6 25.6 0 1 1-51.2 0Z"  horiz-adv-x="1024" />

    
    <glyph glyph-name="calendar" unicode="&#59401;" d="M905.6 796.8H118.4v-694.4h787.2V796.8z m-64-102.4H182.4V732.8h659.2v-38.4zM182.4 166.39999999999998V662.4h659.2v-499.2H182.4zM300.8 409.6m-25.6 0a25.6 25.6 0 1 1 51.2 0 25.6 25.6 0 1 1-51.2 0ZM441.6 409.6m-25.6 0a25.6 25.6 0 1 1 51.2 0 25.6 25.6 0 1 1-51.2 0ZM585.6 409.6m-25.6 0a25.6 25.6 0 1 1 51.2 0 25.6 25.6 0 1 1-51.2 0ZM726.4 409.6m-25.6 0a25.6 25.6 0 1 1 51.2 0 25.6 25.6 0 1 1-51.2 0ZM441.6 560m-25.6 0a25.6 25.6 0 1 1 51.2 0 25.6 25.6 0 1 1-51.2 0ZM585.6 560m-25.6 0a25.6 25.6 0 1 1 51.2 0 25.6 25.6 0 1 1-51.2 0ZM726.4 556.8m-25.6 0a25.6 25.6 0 1 1 51.2 0 25.6 25.6 0 1 1-51.2 0ZM300.8 268.79999999999995m-25.6 0a25.6 25.6 0 1 1 51.2 0 25.6 25.6 0 1 1-51.2 0ZM441.6 268.79999999999995m-25.6 0a25.6 25.6 0 1 1 51.2 0 25.6 25.6 0 1 1-51.2 0ZM585.6 268.79999999999995m-25.6 0a25.6 25.6 0 1 1 51.2 0 25.6 25.6 0 1 1-51.2 0Z"  horiz-adv-x="1024" />

    
    <glyph glyph-name="zifadian" unicode="&#58893;" d="M975.89248 525.99808a478.27968 478.27968 0 0 1-42.56768 98.32448c-6.53312 11.39712-18.65728 17.4592-30.52544 15.62624-13.16864-2.01728-23.01952-11.28448-25.82528-24.1664-2.34496-10.76224 2.62144-19.46624 7.44448-28.40576 50.4832-93.5936 64.98304-192.65536 41.73824-296.28416-50.18624-223.77472-268.35968-366.53056-493.4144-323.88096C247.77728 2.2528 107.008 156.11904 89.42592 342.9888c-7.3216 77.824 5.4784 152.33024 38.84032 223.1808 82.46272 175.07328 276.67456 272.90624 465.92 234.65984a423.6288 423.6288 0 0 0 125.97248-46.86848c6.71744-3.81952 13.75232-6.26688 21.58592-5.0176 13.53728 2.1504 23.21408 11.63264 25.66144 24.96512 2.36544 12.92288-3.4816 25.02656-15.91296 32.0512-71.97696 40.67328-149.2992 61.83936-215.87968 63.20128-61.40928 0.64512-102.30784-4.02432-142.45888-14.27456C135.49568 789.1968-21.22752 530.432 39.96672 271.74912c61.15328-258.51904 321.66912-420.25984 580.73088-360.5504 274.44224 63.25248 437.4528 345.3952 355.19488 614.79936zM472.17664 588.8L369.64352 353.28h88.5248l-62.88384-225.8944L651.60192 404.48h-93.99296l119.61344 184.32z"  horiz-adv-x="1024" />

    
    <glyph glyph-name="jienengliang" unicode="&#58884;" d="M826.349 767.376c-50.78-176.753-184.422-77.18-341.356-253.904-156.961-176.724-48.569-375.648-48.569-375.648l-92.772-75.191 78.915-57.387 91.231 68.584c311.712-94.508 439.868 150.383 439.868 150.383 166.618 347.29-127.317 543.163-127.317 543.163zM648.756 248.119C534.682 139.336 430.91 65.711 430.91 65.711l-6.803 8.119c123.76 92.771 214.124 166.842 276.102 244.441-11.868 15.396-37.79 64.611-29.001 197.833l7.896-1.316s-11.197-106.601 18.923-166.842c0 0 8.117-14.949 18.253-8.791 126.14 158.277 132.971 284.222 132.971 284.222h8.117c-13.38-126.617-90.757-245.31-176.306-340.265l0.448 0.225c-17.804-20.213-10.133-29.896-10.133-29.896 85.771-27.715 224.229 45.461 224.229 45.461l4.422-6.551c-139.577-74.97-226.637-51.232-251.272-44.232zM678.207-6.623a421.854 421.854 0 0 0-164.186-33.203C280.135-39.826 89.973 150.309 89.973 384c0 233.664 190.162 423.798 423.825 423.798 58.256 0 113.627-11.87 164.185-33.173l53.412 53.413c-65.729 32.305-139.578 50.556-217.597 50.556C241 878.595 19.205 656.8 19.205 384c0-272.772 221.795-494.594 494.593-494.594 78.019 0 151.868 18.254 217.597 50.557l-53.188 53.414z"  horiz-adv-x="1024" />

    
    <glyph glyph-name="leijifadianliang" unicode="&#59055;" d="M701.262 424.041H574.225l42.56 278.058-295.99-363.615h147.673l-41.916-278.058 274.71 363.615zM913.962 189.526C942.802 248.668 959 315.063 959 385.177 959 632.134 758.134 833 511.177 833S63.355 632.134 63.355 385.177s200.866-447.823 447.823-447.823c69.927 0 136.155 16.11 195.177 44.806C733.062-45.671 770.631-63 812.25-63 893.298-63 959 2.702 959 83.75c0 41.558-17.279 79.076-45.038 105.776zM892 15.068H733.494v26.378H892v-26.378z m0 52.726H733.494v26.378H892v-26.378z m0 52.787H733.494v26.378H892v-26.378z m-33.138 102.356c-14.645 4.902-30.318 7.563-46.612 7.563-81.048 0-146.75-65.702-146.75-146.75 0-16.232 2.642-31.846 7.508-46.443-49.2-22.971-104.046-35.806-161.83-35.806-211.529 0-383.676 172.147-383.676 383.676s171.976 383.676 383.676 383.676c211.701 0 383.676-171.976 383.676-383.676-0.001-57.963-12.907-112.947-35.992-162.24z"  horiz-adv-x="1024" />

    
    <glyph glyph-name="photovoltaic" unicode="&#58999;" d="M512 626.1759999999999a233.984 233.984 0 1 1 233.984-233.984A234.496 234.496 0 0 1 512 626.1759999999999z m0-391.68a157.184 157.184 0 1 0 153.6 157.696 157.696 157.696 0 0 0-153.6-157.696zM512 671.744a38.4 38.4 0 0 1 38.4 38.4v102.4a38.4 38.4 0 1 1-76.8 0v-102.4a38.4 38.4 0 0 1 38.4-38.4zM259.072 588.8a38.4 38.4 0 0 1 54.272 56.832L241.152 717.8240000000001a38.4 38.4 0 0 1-54.272-54.272zM230.4 393.728a38.4 38.4 0 0 1-38.4 38.4h-102.4a38.4 38.4 0 0 1 0-76.8h102.4a38.4 38.4 0 0 1 38.4 38.4zM256 195.072L184.832 122.88a38.4 38.4 0 1 1 54.272-54.272l72.192 72.192A38.4 38.4 0 1 1 256 195.072zM508.928 112.12800000000004a38.4 38.4 0 0 1-38.4-38.4v-102.4a38.4 38.4 0 0 1 76.8 0v102.4a38.4 38.4 0 0 1-38.4 38.4zM761.344 193.024a38.4 38.4 0 1 1-54.272-54.272l72.192-72.192a38.4 38.4 0 0 1 54.272 54.272zM930.816 428.544h-102.4a38.4 38.4 0 0 1 0-76.8h102.4a38.4 38.4 0 0 1 0 76.8zM736.768 577.5360000000001a38.4 38.4 0 0 1 27.136 11.264l72.192 72.192a38.4 38.4 0 0 1-54.272 54.272l-72.192-72.192a38.4 38.4 0 0 1 27.136-65.536z"  horiz-adv-x="1024" />

    
    <glyph glyph-name="money1" unicode="&#58913;" d="M656 585.6c35.2 38.4 76.8 96 76.8 156.8 0 35.2-9.6 64-32 86.4-41.6 41.6-115.2 41.6-198.4 41.6h-60.8c-76.8 0-140.8 3.2-182.4-38.4-22.4-22.4-32-51.2-32-89.6 0-86.4 76.8-163.2 112-192 12.8-12.8 35.2-9.6 44.8 3.2 12.8 12.8 9.6 35.2-3.2 44.8-54.4 48-89.6 102.4-89.6 144 0 32 9.6 41.6 12.8 44.8 22.4 19.2 76.8 19.2 137.6 19.2h67.2c67.2 0 131.2 0 153.6-22.4 0-3.2 9.6-12.8 9.6-41.6 0-38.4-35.2-92.8-92.8-140.8-9.6-6.4-12.8-19.2-9.6-28.8 3.2-9.6 9.6-19.2 19.2-25.6C707.2 502.4 832 380.79999999999995 832 214.39999999999998 832 57.60000000000002 736 0 480 0s-352 57.6-352 214.4c0 96 44.8 192 124.8 262.4 12.8 12.8 16 32 3.2 44.8-12.8 12.8-32 16-44.8 3.2C118.4 441.6 64 329.6 64 214.39999999999998 64-64 345.6-64 480-64s416 0 416 278.4C899.2 368 800 512 656 585.6zM611.2 428.8c12.8 12.8 12.8 32 0 44.8-12.8 12.8-32 12.8-44.8 0l-80-76.8-80 76.8c-12.8 12.8-32 12.8-44.8 0-12.8-12.8-12.8-32 0-44.8l89.6-86.4v-19.2h-64c-19.2 0-32-12.8-32-32s12.8-32 32-32h64v-32h-64c-19.2 0-32-12.8-32-32s12.8-32 32-32h64V96c0-19.2 12.8-32 32-32s32 12.8 32 32v67.2h64c19.2 0 32 12.8 32 32s-12.8 32-32 32h-64v32h64c19.2 0 32 12.8 32 32s-12.8 32-32 32h-64V336l96 92.8z"  horiz-adv-x="1024" />

    
    <glyph glyph-name="fadiannengli" unicode="&#58915;" d="M512.7 830.2c-246.2 0-446.6-200.3-446.6-446.6S266.5-63 512.7-63c246.2 0 446.6 200.3 446.6 446.6S759 830.2 512.7 830.2z m0-835.7c-214.6 0-389.1 174.6-389.1 389.1s174.6 389.1 389.1 389.1c214.6 0 389.1-174.6 389.1-389.1S727.3-5.5 512.7-5.5zM664.5 678L325.1 385.2l181.9-58L365 105l363.2 268.9-190.8 56.2"  horiz-adv-x="1024" />

    
    <glyph glyph-name="shouyi1" unicode="&#58935;" d="M70.8473243 212.30484625999998c-12.49588925 0-24.99177844 8.33059282-28.11575077 21.86780618-3.1239723 13.53721332 9.37191692 27.07442665 24.99177847 30.19839896 310.31458246 46.85958459 586.26546956 231.17395069 731.00951974 491.50497624 3.1239723 8.33059282 9.37191692 16.66118561 12.49588924 24.99177844 6.24794461 13.53721332 24.99177844 18.74383382 37.48766767 13.53721333 15.61986151-5.2066205 21.86780614-21.86780614 15.61986152-33.32237126-3.1239723-8.33059282-9.37191692-16.66118561-12.4958892-24.99177846-154.11596713-274.909563-445.68671574-469.6371701-774.74513208-521.70337519-3.1239723-2.08264821-6.24794461-2.08264821-6.24794459-2.08264824z m0 0M879.95615171 651.74361742c-12.49588925 0-24.99177844 8.33059282-28.11575074 21.86780614l-28.11575076 115.58697535c-3.1239723 13.53721332 6.24794461 27.07442665 21.86780613 30.19839898 15.61986151 3.1239723 31.23972305-5.2066205 34.36369537-18.74383388l28.11575077-117.66962353c3.1239723-13.53721332-6.24794461-27.07442665-21.86780615-30.19839898h-6.24794462z m0 0M730.00548102 734.00822151c-12.49588925 0-24.99177844 8.33059282-28.11575077 18.74383382-6.24794461 13.53721332 3.1239723 27.07442665 18.74383384 33.32237127l124.95889225 33.32237129c15.61986151 5.2066205 31.23972305-3.1239723 37.48766768-16.66118565 6.24794461-13.53721332-3.1239723-27.07442665-18.74383385-33.32237128l-124.95889224-33.32237127c-3.1239723 1.0413241-6.24794461-2.08264821-9.37191691-2.08264818zM845.59245634-59.48074441000006c-15.61986151 0-28.11575076 11.45456514-28.11575076 24.99177848V519.49545642c0 13.53721332 12.49588925 24.99177844 28.11575076 24.99177844 15.61986151 0 28.11575076-11.45456514 28.11575074-24.99177844v-555.02574649c0-13.53721332-12.49588925-23.95045435-28.11575074-23.95045434zM597.75732002-59.48074441000006c-15.61986151 0-28.11575076 11.45456514-28.11575079 24.99177848v337.38900912c0 13.53721332 12.49588925 24.99177844 28.11575079 24.99177845 15.61986151 0 28.11575076-11.45456514 28.11575074-24.99177845v-337.38900912c3.1239723-14.57853743-9.37191692-24.99177844-28.11575074-24.99177848zM353.04615597-59.48074441000006c-15.61986151 0-28.11575076 11.45456514-28.11575075 24.99177848v181.19039373c0 13.53721332 12.49588925 24.99177844 28.11575075 24.99177849 15.61986151 0 28.11575076-11.45456514 28.11575079-24.99177849v-181.19039373c0-14.57853743-12.49588925-24.99177844-28.11575079-24.99177848zM105.21101966-59.48074441000006c-15.61986151 0-28.11575076 11.45456514-28.11575077 24.99177848v117.66962355c0 13.53721332 12.49588925 24.99177844 28.11575077 24.99177844 15.61986151 0 28.11575076-11.45456514 28.11575077-24.99177844v-117.66962355c0-14.57853743-12.49588925-24.99177844-28.11575077-24.99177848z"  horiz-adv-x="1024" />

    
    <glyph glyph-name="liebiao" unicode="&#58880;" d="M96.256 259.96799999999996l192 0c17.664 0 32 14.336 32 32s-14.336 32-32 32l-192 0c-17.664 0-32-14.336-32-32S78.592 259.96799999999996 96.256 259.96799999999996zM1015.04-7.423999999999978l-110.208 110.208c34.112 43.52 55.36 97.6 55.36 157.248 0 141.376-114.624 256-256 256s-256-114.624-256-256 114.624-256 256-256c59.648 0 113.728 21.248 157.248 55.36l110.208-110.208c12.032-11.968 31.36-11.968 43.392 0C1027.008-38.78399999999999 1027.008-19.456000000000017 1015.04-7.423999999999978zM841.408 125.952c-0.576-0.512-1.344-0.704-1.856-1.28s-0.768-1.344-1.28-1.856c-34.624-33.792-81.792-54.784-134.08-54.784-106.048 0-192 85.952-192 192s85.952 192 192 192 192-85.952 192-192C896.256 207.74400000000003 875.264 160.57600000000002 841.408 125.952zM96.256 643.968l576 0c17.664 0 32 14.336 32 32s-14.336 32-32 32l-576 0c-17.664 0-32-14.336-32-32S78.592 643.968 96.256 643.968zM352.256 515.9680000000001l-256 0c-17.664 0-32-14.336-32-32s14.336-32 32-32l256 0c17.664 0 32 14.336 32 32S369.92 515.9680000000001 352.256 515.9680000000001zM352.256 131.96799999999996l-256 0c-17.664 0-32-14.336-32-32s14.336-32 32-32l256 0c17.664 0 32 14.336 32 32S369.92 131.96799999999996 352.256 131.96799999999996z"  horiz-adv-x="1025" />

    
    <glyph glyph-name="ranqi" unicode="&#58891;" d="M509.866667-125.866667C232.533333-125.866667 6.4 100.266667 6.4 377.6S232.533333 881.066667 509.866667 881.066667s503.466667-226.133333 503.466666-503.466667-226.133333-503.466667-503.466666-503.466667z m0 974.933334c-260.266667 0-471.466667-211.2-471.466667-471.466667s211.2-471.466667 471.466667-471.466667S981.333333 117.333333 981.333333 377.6 770.133333 849.066667 509.866667 849.066667zM772.266667 356.266667c-2.133333 29.866667-8.533333 59.733333-17.066667 85.333333-12.8 40.533333-32 76.8-53.333333 106.666667-6.4 8.533333-17.066667 10.666667-25.6 4.266666-8.533333-6.4-10.666667-17.066667-4.266667-25.6 19.2-25.6 36.266667-59.733333 49.066667-96 8.533333-23.466667 12.8-49.066667 14.933333-76.8 6.4-98.133333-34.133333-177.066667-115.2-221.866666-12.8 104.533333-98.133333 138.666667-102.4 140.8s-10.666667 2.133333-14.933333 0c-72.533333-38.4-96-104.533333-100.266667-140.8-72.533333 36.266667-117.333333 106.666667-117.333333 185.6 0 53.333333 27.733333 102.4 85.333333 151.466666 8.533333 6.4 14.933333 12.8 23.466667 19.2 42.666667 34.133333 85.333333 70.4 106.666666 123.733334 2.133333 6.4 4.266667 10.666667 6.4 14.933333 38.4-25.6 123.733333-96 149.333334-232.533333 2.133333-10.666667 10.666667-14.933333 21.333333-14.933334 10.666667 2.133333 17.066667 10.666667 14.933333 21.333334-38.4 187.733333-172.8 260.266667-187.733333 268.8h-2.133333c-8.533333 4.266667-19.2 0-25.6-8.533334-2.133333-2.133333-2.133333-4.266667-2.133334-8.533333-2.133333-6.4-8.533333-27.733333-10.666666-32-17.066667-44.8-55.466667-74.666667-96-108.8-8.533333-6.4-14.933333-12.8-23.466667-19.2-64-55.466667-98.133333-115.2-98.133333-179.2 0-102.4 61.866667-189.866667 164.266666-228.266667 2.133333 0 4.266667-2.133333 6.4-2.133333 4.266667 0 6.4 0 10.666667 2.133333 4.266667 4.266667 8.533333 8.533333 8.533333 14.933334 0 4.266667 0 85.333333 76.8 132.266666 19.2-10.666667 72.533333-46.933333 72.533334-132.266666 0-6.4 2.133333-10.666667 8.533333-14.933334 4.266667-4.266667 12.8-4.266667 17.066667-2.133333 108.8 51.2 170.666667 151.466667 160 273.066667M484.266667 640l-2.133334 2.133333c0-2.133333 2.133333-2.133333 2.133334-2.133333"  horiz-adv-x="1024" />

    


  </font>
</defs>
</svg>
